<svg width="24" height="24" viewBox="0 0 24 24" fill="none" xmlns="http://www.w3.org/2000/svg">
<path d="M14.7734 4.96837C16.5005 4.96837 18.8946 6.22229 18.7705 9.25548C18.6581 11.9983 16.1714 14.4515 13.5566 14.4518C11.4884 14.5761 9.50686 13.0839 9.50684 10.5895C9.50684 6.89341 12.7923 4.85251 14.7734 4.96837Z" fill="black"/>
<path fill-rule="evenodd" clip-rule="evenodd" d="M13.3545 2.01036C17.0822 1.82233 22.2578 4.38689 21.9902 10.6451C21.748 16.305 16.3811 21.3667 10.7383 21.3668C6.27541 21.6233 2.00038 18.5456 2 13.399C2 5.77247 9.07952 1.77096 13.3545 2.01036ZM14.0303 3.8463C11.1428 3.67543 6.36045 6.53184 6.36035 11.9752C6.36046 15.6487 9.24817 17.8458 12.2627 17.6627C16.0742 17.6627 19.6986 14.0501 19.8623 10.0104C20.0431 5.54357 16.5696 3.8465 14.0303 3.8463Z" fill="black"/>
</svg>
