<svg viewBox="0 0 120 160" fill="none" xmlns="http://www.w3.org/2000/svg">
  <path
    d="M68.2843 79H65.8701L67.5772 80.7071L113.288 126.418C120.708 133.838 120.708 145.868 113.288 153.288C105.868 160.708 93.8377 160.708 86.4178 153.288L40.7071 107.577L39 105.87V108.284V140C39 150.493 30.4934 159 20 159C9.50658 159 1 150.493 1 140V20C1 9.5066 9.5066 1 20 1H100C110.493 1 119 9.5066 119 20V60C119 70.4934 110.493 79 100 79H68.2843Z"
    fill="#FF3A3A" />
  <path
    d="M68.2843 79H65.8701L67.5772 80.7071L113.288 126.418C120.708 133.838 120.708 145.868 113.288 153.288C105.868 160.708 93.8377 160.708 86.4178 153.288L40.7071 107.577L39 105.87V108.284V140C39 150.493 30.4934 159 20 159C9.50658 159 1 150.493 1 140V20C1 9.5066 9.5066 1 20 1H100C110.493 1 119 9.5066 119 20V60C119 70.4934 110.493 79 100 79H68.2843Z"
    fill="black" fill-opacity="0.2" />
  <path
    d="M68.2843 79H65.8701L67.5772 80.7071L113.288 126.418C120.708 133.838 120.708 145.868 113.288 153.288C105.868 160.708 93.8377 160.708 86.4178 153.288L40.7071 107.577L39 105.87V108.284V140C39 150.493 30.4934 159 20 159C9.50658 159 1 150.493 1 140V20C1 9.5066 9.5066 1 20 1H100C110.493 1 119 9.5066 119 20V60C119 70.4934 110.493 79 100 79H68.2843Z"
    stroke="#F2F2F2" stroke-width="2" />
  <path
    d="M39 120V121H40H100C110.493 121 119 129.507 119 140C119 150.493 110.493 159 100 159H20C9.5066 159 1 150.493 1 140V20C1 9.5066 9.5066 1 20 1C30.4934 1 39 9.5066 39 20V120Z"
    fill="#FF3A3A" stroke="#F2F2F2" stroke-width="2" />
</svg>