<svg width="34" height="34" viewBox="0 0 34 34" fill="none" xmlns="http://www.w3.org/2000/svg">
	<rect width="34" height="34" rx="8" fill="black" />
	<path
		d="M8 8C8 6.34315 9.34315 5 11 5H23C24.6569 5 26 6.34315 26 8V14C26 15.6569 24.6569 17 23 17H18.2426L25.0992 23.8566C26.2708 25.0282 26.2708 26.9277 25.0992 28.0992C23.9277 29.2708 22.0282 29.2708 20.8566 28.0992L14 21.2426V26C14 27.6569 12.6569 29 11 29C9.34314 29 8 27.6569 8 26V8Z"
		fill="white" />
	<path
		d="M8 8C8 6.34315 9.34315 5 11 5H23C24.6569 5 26 6.34315 26 8V14C26 15.6569 24.6569 17 23 17H18.2426L25.0992 23.8566C26.2708 25.0282 26.2708 26.9277 25.0992 28.0992C23.9277 29.2708 22.0282 29.2708 20.8566 28.0992L14 21.2426V26C14 27.6569 12.6569 29 11 29C9.34314 29 8 27.6569 8 26V8Z"
		fill="black" fill-opacity="0.1" />
	<path
		d="M11 5C9.34315 5 8 6.34315 8 8V26C8 27.6569 9.34315 29 11 29H23C24.6569 29 26 27.6569 26 26C26 24.3431 24.6569 23 23 23H14V8C14 6.34315 12.6569 5 11 5Z"
		fill="white" />
</svg>