<svg width="48" height="48" viewBox="0 0 48 48" fill="none" xmlns="http://www.w3.org/2000/svg">
<path d="M12.6705 9.34832C17.2564 12.7586 22.1891 19.6734 24.0001 23.3842C25.8113 19.6736 30.7437 12.7586 35.3297 9.34832C38.6387 6.88756 44 4.98357 44 11.0422C44 12.2522 43.2997 21.2067 42.8889 22.6604C41.4611 27.7146 36.2583 29.0037 31.6303 28.2235C39.72 29.5873 41.7779 34.1048 37.3336 38.6223C28.8929 47.2019 25.2019 36.4696 24.2557 33.7196C24.0823 33.2155 24.0012 32.9797 24 33.1802C23.9988 32.9797 23.9177 33.2155 23.7443 33.7196C22.7985 36.4696 19.1076 47.2022 10.6664 38.6223C6.22206 34.1048 8.27991 29.587 16.3697 28.2235C11.7415 29.0037 6.53867 27.7146 5.1111 22.6604C4.70033 21.2066 4 12.252 4 11.0422C4 4.98357 9.36149 6.88756 12.6703 9.34832H12.6705Z" fill="#910000"/>
</svg>
