<svg viewBox="0 0 48 48" fill="none" xmlns="http://www.w3.org/2000/svg">
  <path
    d="M24 4C12.954 4 4 12.954 4 24C4 32.838 9.73 40.332 17.678 42.978C18.678 43.158 19.042 42.542 19.042 42.01C19.042 41.538 19.024 40.278 19.014 38.612C13.45 39.816 12.276 35.932 12.276 35.932C11.366 33.618 10.056 33.002 10.056 33.002C8.238 31.762 10.194 31.786 10.194 31.786C12.202 31.928 13.258 33.846 13.258 33.846C15.04 36.904 17.94 36.024 19.078 35.512C19.26 34.218 19.776 33.34 20.348 32.838C15.908 32.336 11.238 30.616 11.238 22.952C11.238 20.77 12.018 18.984 13.298 17.588C13.092 17.08 12.404 15.048 13.492 12.296C13.492 12.296 15.172 11.758 18.992 14.346C20.59 13.9 22.3 13.68 24 13.672C25.7 13.68 27.41 13.9 29.008 14.344C32.826 11.756 34.504 12.294 34.504 12.294C35.596 15.046 34.908 17.082 34.704 17.586C35.984 18.984 36.756 20.768 36.756 22.95C36.756 30.632 32.082 32.324 27.626 32.82C28.344 33.434 28.984 34.654 28.984 36.524C28.984 39.194 28.96 41.354 28.96 42.006C28.96 42.544 29.32 43.164 30.336 42.968C38.276 40.322 44 32.832 44 24C44 12.954 35.046 4 24 4Z"
    fill="#910000" />
</svg>