<svg width="48" height="48" viewBox="0 0 48 48" fill="none" xmlns="http://www.w3.org/2000/svg">
<path d="M9.21494 6.30526C7.47016 7.33689 4.0326 11.2694 4 12.3007V14.0079C4 16.1718 6.0312 18.0737 7.87542 18.0737C10.0899 18.0737 11.9349 16.2461 11.9351 14.077C11.9351 16.2461 13.7168 18.0737 15.9314 18.0737C18.1462 18.0737 19.8708 16.2461 19.8708 14.077C19.8708 16.2461 21.7654 18.0737 23.98 18.0737H24.0201C26.2348 18.0737 28.1294 16.2461 28.1294 14.077C28.1294 16.2461 29.8541 18.0737 32.0686 18.0737C34.2832 18.0737 36.0649 16.2461 36.0649 14.077C36.0649 16.2461 37.9103 18.0737 40.1246 18.0737C41.9688 18.0737 44 16.1721 44 14.0079V12.3007C43.9674 11.2693 40.5298 7.33657 38.7854 6.30526C33.3624 6.11565 29.6029 6.08286 23.9998 6.08367C18.3969 6.08416 10.7582 6.17133 9.21461 6.30526H9.21494ZM19.8427 17.0545C19.631 17.4221 19.3687 17.7584 19.0635 18.0537C18.2275 18.8677 17.0817 19.3722 15.8185 19.3722C14.6029 19.3733 13.4354 18.8997 12.5666 18.0531C12.2637 17.7576 12.0335 17.4417 11.8227 17.0739L11.8218 17.0745C11.6111 17.443 11.3177 17.7587 11.0142 18.0545C10.1451 18.9005 8.97766 19.3738 7.76229 19.3727C7.61003 19.3727 7.45158 19.3308 7.32344 19.287C7.14543 21.133 7.07028 22.8973 7.04371 24.1836L7.04338 24.1909C7.04012 24.8441 7.03686 25.3813 7.0336 26.1276C7.06783 30.0009 6.64839 38.6815 8.74855 40.8144C12.003 41.5701 17.9917 41.9142 23.9997 41.9163H24.0007C30.0085 41.9142 35.9971 41.5701 39.2516 40.8144C41.3518 38.6814 40.9323 30.0007 40.9666 26.1274C40.963 25.3813 40.96 24.8441 40.9568 24.1908L40.9563 24.1834C40.9299 22.8968 40.8547 21.1327 40.6767 19.2866C40.5486 19.3305 40.3903 19.3723 40.2379 19.3723C39.0225 19.3734 37.8551 18.9002 36.986 18.0542C36.6825 17.7584 36.389 17.4428 36.1782 17.0742L36.1773 17.0735C35.9663 17.4414 35.7363 17.7574 35.4334 18.0527C34.5647 18.8993 33.3972 19.3729 32.1817 19.3717C30.9186 19.3717 29.7726 18.8668 28.9367 18.0531C28.6315 17.7578 28.3692 17.4215 28.1574 17.0539C27.948 17.4211 27.6881 17.7573 27.3854 18.0531C26.5164 18.8995 25.3488 19.373 24.1332 19.3719C24.0892 19.3719 24.0452 19.3699 24.0011 19.3686H24C23.956 19.3699 23.912 19.3719 23.8675 19.3719C22.6519 19.3731 21.4843 18.8997 20.6153 18.0532C20.3125 17.7575 20.0527 17.4212 19.8432 17.0541L19.8427 17.0545ZM16.5031 21.3548L16.5028 21.3564H16.5053C17.8278 21.3592 19.0027 21.3564 20.4584 22.9385C21.6041 22.8189 22.8013 22.7591 23.9995 22.7609H24.0005C25.1987 22.7593 26.3959 22.8189 27.5417 22.9385C28.9975 21.3562 30.1723 21.359 31.4949 21.3564H31.4972L31.4969 21.3548C32.1217 21.3548 34.6213 21.3548 36.3629 26.2259L38.2337 32.9084C39.62 37.8797 37.7898 38.0013 35.5069 38.0057C32.1214 37.8802 30.2468 35.4319 30.2468 32.9839C28.3728 33.2897 26.1866 33.4427 24.0003 33.4428H23.9993C21.813 33.4428 19.6267 33.2897 17.7528 32.9839C17.7528 35.4319 15.8781 37.8802 12.4927 38.0057C10.2098 38.0013 8.3798 37.8799 9.7661 32.9084L11.6374 26.2261C13.3791 21.3549 15.8786 21.3549 16.5035 21.3549L16.5031 21.3548ZM23.9995 25.1829V25.1839C23.9963 25.1872 20.4355 28.4436 19.7953 29.6018L22.1271 29.5088V31.5338C22.1271 31.6286 23.0628 31.5899 23.9995 31.5468H24.0005C24.9369 31.5899 25.8727 31.6286 25.8727 31.5338V29.5088L28.2046 29.6018C27.5642 28.4436 24.0003 25.1839 24.0003 25.1839V25.1829L23.9998 25.1833L23.9995 25.1829Z" fill="#910000"/>
</svg>
