<svg viewBox="0 0 48 48" fill="none" xmlns="http://www.w3.org/2000/svg">
  <path
    d="M24 32.1818C21.7364 32.1818 19.8068 31.3841 18.2114 29.7886C16.6159 28.1932 15.8182 26.2636 15.8182 24C15.8182 21.7364 16.6159 19.8068 18.2114 18.2114C19.8068 16.6159 21.7364 15.8182 24 15.8182C26.2636 15.8182 28.1932 16.6159 29.7886 18.2114C31.3841 19.8068 32.1818 21.7364 32.1818 24C32.1818 26.2636 31.3841 28.1932 29.7886 29.7886C28.1932 31.3841 26.2636 32.1818 24 32.1818ZM12.5455 25.2273H6V22.7727H12.5455V25.2273ZM42 25.2273H35.4545V22.7727H42V25.2273ZM22.7727 12.5455V6H25.2273V12.5455H22.7727ZM22.7727 42V35.4545H25.2273V42H22.7727ZM15.0818 16.7182L10.9909 12.75L12.75 10.95L16.6773 15.0409L15.0818 16.7182ZM35.2909 37.0091L31.2818 32.9182L32.9591 31.2409L37.0091 35.25L35.2909 37.0091ZM31.2409 15.0409L35.25 10.9909L37.05 12.7091L33 16.7182L31.2409 15.0409ZM10.9909 35.25L15.0409 31.2409L16.7591 32.9591L12.75 37.0091L10.9909 35.25Z"
    fill="#910000" />
</svg>