<svg viewBox="0 0 48 48" fill="none" xmlns="http://www.w3.org/2000/svg">
  <path
    d="M34 26H14V22H34V26ZM36 14H34C30.738 14 27.87 15.584 26.046 18H34H36C38.206 18 40 19.794 40 22V26C40 28.206 38.206 30 36 30H34H26.046C27.872 32.416 30.74 34 34 34H36C40.418 34 44 30.418 44 26V22C44 17.582 40.418 14 36 14ZM4 22V26C4 30.418 7.582 34 12 34H14C17.26 34 20.13 32.416 21.954 30H14H12C9.794 30 8 28.206 8 26V22C8 19.794 9.794 18 12 18H14H21.954C20.13 15.584 17.262 14 14 14H12C7.582 14 4 17.582 4 22Z"
    fill="#910000" />
</svg>