<svg viewBox="0 0 48 48" fill="none" xmlns="http://www.w3.org/2000/svg">
  <path
    d="M39.4 6H8.6C7.164 6 6 7.164 6 8.6V39.4C6 40.836 7.164 42 8.6 42H39.4C40.836 42 42 40.836 42 39.4V8.6C42 7.164 40.836 6 39.4 6ZM16.678 36.676H11.334V19.496H16.678V36.676ZM14.008 17.148C12.294 17.148 10.91 15.76 10.91 14.052C10.91 12.342 12.292 10.956 14.008 10.956C15.716 10.956 17.102 12.344 17.102 14.052C17.102 15.762 15.716 17.148 14.008 17.148ZM36.678 36.676H31.34V28.322C31.34 26.33 31.306 23.766 28.566 23.766C25.788 23.766 25.364 25.938 25.364 28.178V36.676H20.03V19.496H25.148V21.844H25.222C25.934 20.494 27.676 19.07 30.274 19.07C35.68 19.07 36.68 22.628 36.68 27.254L36.678 36.676Z"
    fill="#910000" />
</svg>